<?xml version="1.0" encoding="UTF-8" standalone="no"?>
<!-- Generator: Gravit.io -->
<svg xmlns="http://www.w3.org/2000/svg" xmlns:xlink="http://www.w3.org/1999/xlink" style="isolation:isolate" viewBox="0 0 480 480" width="480pt" height="480pt"><defs><clipPath id="_clipPath_kLXSZqjyT9mtRv7D9upieesCoFe4lvhM"><rect width="480" height="480"/></clipPath></defs><g clip-path="url(#_clipPath_kLXSZqjyT9mtRv7D9upieesCoFe4lvhM)"><rect width="480" height="480" style="fill:rgb(0,0,0)" fill-opacity="0"/><path d="M 55 80 L 425 80 C 433.279 80 440 86.721 440 95 L 440 125 C 440 133.279 433.279 140 425 140 L 55 140 C 46.721 140 40 133.279 40 125 L 40 95 C 40 86.721 46.721 80 55 80 Z" style="stroke:none;fill:#FFFFFF;stroke-miterlimit:10;"/><path d="M 55 210 L 425 210 C 433.279 210 440 216.721 440 225 L 440 255 C 440 263.279 433.279 270 425 270 L 55 270 C 46.721 270 40 263.279 40 255 L 40 225 C 40 216.721 46.721 210 55 210 Z" style="stroke:none;fill:#FFFFFF;stroke-miterlimit:10;"/><path d="M 55 340 L 425 340 C 433.279 340 440 346.721 440 355 L 440 385 C 440 393.279 433.279 400 425 400 L 55 400 C 46.721 400 40 393.279 40 385 L 40 355 C 40 346.721 46.721 340 55 340 Z" style="stroke:none;fill:#FFFFFF;stroke-miterlimit:10;"/></g></svg>