<svg width="305" height="366" viewBox="0 0 305 366" fill="none" xmlns="http://www.w3.org/2000/svg">
<ellipse cx="152.833" cy="321.46" rx="152.167" ry="44.5397" fill="#ECECEC"/>
<path opacity="0.1" d="M17.3801 148.225C27.4336 167.829 26.064 194.188 22.1485 214.901C20.8399 221.835 19.3166 229.139 20.6729 236.98C22.3313 246.553 27.9051 254.172 33.4921 258.583C43.6755 266.626 55.1463 266.684 63.3587 258.734C70.4558 251.863 74.9964 239.697 82.2524 233.205C94.3935 222.344 111.414 229.515 126.284 240.297C136.804 247.925 148.399 257.55 157.91 252.491C164.601 248.931 168.633 238.528 170.403 227.143C171.259 221.647 171.728 215.631 173.834 211.477C175.087 209.008 176.838 207.379 178.658 206.052C195.286 193.934 214.981 225.253 230.979 211.477C241.785 202.174 259.776 163.678 261.464 142.599C263.151 121.52 263.957 94.6836 261.464 72.3654C259.691 56.5121 258.811 34.4813 251.849 21.4515C244.485 7.66732 231.114 -0.962302 221.365 0.0859012C211.616 1.1341 199.912 12.3085 192.756 21.4515C183.815 32.8848 168.056 53.9379 156.291 57.4128C148.277 59.7788 139.426 56.6039 130.838 54.7195C116.482 51.5689 102.389 52.0354 88.3985 52.7504C75.0044 53.435 61.5334 54.3681 49.138 59.8848C40.3667 63.7898 33.7279 72.1967 25.5606 77.571C20.2437 81.0731 14.1825 81.3881 9.25508 86.1111C3.18323 91.9307 -1.96936 102.819 0.740723 116.8C3.31833 130.102 12.0341 137.818 17.3801 148.225Z" fill="#6C63FF"/>
<path d="M251.722 302.872C251.253 301.228 250.785 299.566 249.848 298.135C248.979 296.922 247.947 295.827 246.779 294.879C243.383 291.891 239.213 288.858 234.711 289.612C233.319 289.91 231.973 290.387 230.71 291.028C230.055 291.324 229.394 291.619 228.719 291.869C226.82 292.638 224.721 292.816 222.713 292.377C221.683 292.109 220.722 291.628 219.706 291.328C219.223 291.188 218.73 291.084 218.23 291.019C219.212 290.593 220.165 290.106 221.083 289.562C226.133 286.565 230.162 281.147 229.6 275.353C229.408 273.405 228.719 271.538 228.035 269.699L226.236 264.876C225.459 262.788 224.653 260.658 223.233 258.923C221.655 256.989 219.406 255.676 217.082 254.7C212.093 252.597 206.64 251.857 201.257 251.14L200.882 251.09V194.722C200.882 193.758 200.487 192.834 199.784 192.153C199.082 191.472 198.128 191.089 197.134 191.089H190.06C189.748 189.236 189.436 187.386 189.123 185.54C188.233 180.267 187.31 174.9 184.804 170.154C183.164 167.048 180.555 164.083 177.036 163.475C176.345 163.414 175.665 163.261 175.017 163.02C173.987 162.53 173.424 161.44 172.633 160.636C170.59 158.561 167.268 158.529 164.533 157.458C162.115 156.527 160.138 154.774 157.936 153.425C155.734 152.076 152.998 151.118 150.562 151.995C150.562 152.167 150.53 152.34 150.511 152.508L148.946 151.809C147.26 151.05 145.54 150.274 144.186 149.029C142.448 147.44 141.521 145.333 140.799 143.094C140.724 142.863 140.654 142.64 140.579 142.39C143.573 139.429 145.601 135.678 146.407 131.605L146.786 132.8C146.872 133.068 146.972 133.332 147.086 133.59C147.28 134.089 147.603 134.531 148.023 134.875C148.143 134.966 148.276 135.041 148.417 135.097C148.546 135.147 148.681 135.181 148.82 135.197C149.014 135.221 149.211 135.207 149.401 135.157C149.717 135.061 150.008 134.899 150.251 134.68C150.495 134.462 150.684 134.193 150.806 133.894C150.881 133.716 150.936 133.53 150.97 133.34C150.988 133.226 150.999 133.111 151.003 132.995C151.003 132.959 151.003 132.922 151.003 132.886C151.003 132.85 151.003 132.727 151.003 132.65C151.003 132.573 151.003 132.568 151.003 132.523C151.003 132.477 151.003 132.373 150.979 132.296V132.178C150.979 132.087 150.951 131.996 150.932 131.91C150.914 131.823 150.932 131.86 150.932 131.837C150.909 131.723 150.881 131.605 150.858 131.492C150.858 131.465 150.858 131.433 150.858 131.406C150.858 131.378 150.815 131.219 150.792 131.124C150.768 131.029 150.759 131.001 150.745 130.938V130.911C150.698 130.729 150.656 130.552 150.614 130.37C150.273 128.794 150.186 127.177 150.356 125.575C150.637 123.224 151.084 120.895 151.696 118.604L151.794 118.191C151.832 118.032 151.869 117.873 151.902 117.71C151.977 117.383 152.052 117.056 152.122 116.724L152.291 115.889L152.418 115.144V115.049C152.681 113.361 152.736 111.649 152.582 109.949C152.366 107.574 151.607 105.326 149.944 103.537C148.768 102.27 147.217 101.335 146.126 100.004C145.105 98.7599 144.528 97.225 143.47 96.0035C140.546 92.6204 133.041 90.0138 128.436 89.5597C123.161 89.042 114.639 90.3498 110.385 93.3697C108.811 94.4822 107.734 96.0943 106.637 97.6201C104.623 100.458 102.337 103.292 99.1089 104.886C97.8908 105.485 96.4947 105.939 95.6843 106.984C95.2021 107.692 94.8899 108.496 94.7707 109.336C94.1501 112.293 93.8268 115.301 93.8057 118.318C93.8057 118.695 93.8057 119.072 93.8057 119.454C93.8153 120.585 94.064 121.702 94.5365 122.737C94.6115 122.891 94.6958 123.041 94.7848 123.191L94.841 123.286C95.4076 124.071 95.9089 124.899 96.3401 125.761C96.4476 126.002 96.5246 126.256 96.5697 126.515C96.65 127.18 96.6055 127.854 96.4385 128.504C96.4385 128.604 96.3964 128.704 96.3776 128.804L96.3355 128.999C96.3355 129.067 96.3355 129.135 96.298 129.199C96.2605 129.394 96.2277 129.589 96.1996 129.78C96.1286 130.305 96.1636 130.839 96.3027 131.351C96.3668 131.637 96.4927 131.906 96.672 132.14C96.8512 132.375 97.0798 132.571 97.3427 132.713C97.6095 132.837 97.8936 132.923 98.186 132.968C98.4811 133.018 98.7809 133.049 99.0714 133.113C99.4449 133.196 99.8056 133.325 100.144 133.499C100.469 133.649 100.772 133.839 101.048 134.062C101.185 134.182 101.315 134.31 101.437 134.444C101.685 134.718 101.907 135.013 102.102 135.325C102.202 135.485 102.296 135.648 102.384 135.815C102.719 136.472 102.988 137.16 103.185 137.868C103.306 138.29 103.41 138.717 103.499 139.144C103.541 139.334 103.578 139.525 103.611 139.711C103.644 139.897 103.677 140.088 103.705 140.274C103.833 140.267 103.959 140.243 104.079 140.202C104.768 139.961 105.152 139.184 105.368 138.431C105.405 138.303 105.438 138.181 105.466 138.058C105.574 137.604 105.686 137.105 105.794 136.628C107.641 140.429 110.618 143.608 114.344 145.755C114.475 146.132 114.602 146.505 114.714 146.886C115.328 148.943 115.623 151.096 114.559 152.894C113.801 154.17 112.526 154.956 111.102 155.5C110.897 155.235 110.633 155.018 110.329 154.865C109.097 154.265 107.617 154.992 106.581 155.886C104.707 157.53 103.18 159.887 100.716 160.428C99.8257 160.627 98.8419 160.586 98.1016 161.113C97.6121 161.559 97.2021 162.081 96.8883 162.657C96.3536 163.402 95.6345 164.004 94.7971 164.408C93.9596 164.813 93.0307 165.007 92.0957 164.973C91.2384 164.932 90.2218 164.742 89.6362 165.35C89.2005 165.804 89.1677 166.522 88.6992 166.953C88.0714 167.552 87.0408 167.262 86.1647 167.225C84.4969 167.157 82.9462 168.202 81.9952 169.541C81.0442 170.881 80.5898 172.484 80.1213 174.082V174.11C80.0011 174.195 79.8868 174.287 79.7793 174.387C79.3251 174.856 78.9729 175.409 78.7439 176.012C74.9553 184.374 72.7191 193.318 72.1383 202.432C72.1476 202.876 72.0446 203.316 71.8385 203.713C71.6289 203.972 71.3986 204.215 71.1498 204.439C70.9272 204.704 70.7616 205.008 70.6628 205.336C70.564 205.663 70.534 206.006 70.5747 206.345C70.6153 206.684 70.7257 207.012 70.8993 207.308C71.073 207.605 71.3063 207.865 71.5855 208.072C71.7203 207.836 71.8891 207.618 72.0868 207.427C72.0353 207.636 71.9884 207.841 71.9556 208.027C71.7675 209.352 71.7501 210.694 71.9041 212.023C72.3476 218.332 72.7958 224.637 73.2486 230.937C73.3751 232.721 73.5016 234.501 73.6703 236.281C73.9982 239.727 74.4667 243.158 75.0757 246.576C75.1038 246.73 75.1366 246.889 75.1788 247.03C71.3606 248.206 67.9641 250.331 66.5353 253.878C66.0387 255.104 65.8138 256.439 65.2048 257.615C64.5348 258.905 63.4339 259.936 62.7031 261.198C61.4429 263.369 61.3866 266.03 61.8458 268.464C62.7312 273.209 65.3781 277.451 68.873 280.902C68.7184 280.902 68.5591 280.902 68.4045 280.902C67.2627 281.024 66.1666 281.406 65.2048 282.014C57.8121 286.201 53.5864 295.184 55.1277 303.385C55.4322 304.988 55.9616 306.613 57.0672 307.835C57.9862 308.806 59.1679 309.508 60.4778 309.86C61.297 310.099 62.1405 310.251 62.9935 310.314C68.7559 310.768 74.3355 308.18 80.1119 307.962C82.0254 307.933 83.939 308.019 85.8414 308.221C88.6242 308.445 91.4117 308.587 94.2039 308.648C98.7435 308.752 101.297 307.581 104.192 304.293C104.904 303.475 105.498 302.568 105.958 301.596C108.422 301.459 111.144 301.25 113.112 301.096L113.14 301.359C113.248 302.268 113.412 303.312 114.161 303.884C114.583 304.166 115.062 304.357 115.567 304.443C120.298 305.569 125.086 306.713 129.958 306.713C132.245 306.669 134.527 306.499 136.794 306.205L145.353 305.247C147.847 305.553 150.308 306.073 152.708 306.8C155.182 307.612 157.491 308.82 159.909 309.779C165.53 311.985 171.574 312.776 177.561 313.548C178.582 313.679 179.754 313.77 180.508 313.093C181.482 312.185 181.159 310.669 180.883 309.397C180.77 308.875 180.686 308.353 180.62 307.826C184.66 308.858 188.613 310.188 192.445 311.804L193.115 312.09C193.311 313.08 194.253 313.87 195.157 314.937C195.454 315.388 195.801 315.805 196.193 316.181C196.64 316.463 197.148 316.64 197.678 316.699C203.998 317.841 210.452 318.123 216.853 317.539C218.163 317.366 219.487 317.322 220.807 317.407C221.776 317.535 222.732 317.744 223.664 318.03L229.085 319.537C233.081 320.645 237.171 321.767 241.317 321.517C242.158 321.466 242.993 321.349 243.814 321.167C247.093 320.432 250.148 318.656 251.722 315.8C253.947 311.917 252.921 307.14 251.722 302.872Z" fill="url(#paint0_linear)"/>
<path d="M100.069 301.986C99.0808 299.806 98.1438 297.3 99.1323 295.12C99.7775 293.836 100.886 292.827 102.248 292.282C103.595 291.749 105.016 291.41 106.464 291.274C111.01 290.696 115.611 290.635 120.172 291.092C120.504 293.644 119.802 296.233 119.197 298.698C118.649 300.969 118.335 301.305 115.918 301.423C114.353 301.505 100.439 302.79 100.069 301.986Z" fill="#FBBEBE"/>
<path d="M141.788 287.282C178.787 287.282 208.781 279.15 208.781 269.118C208.781 259.086 178.787 250.954 141.788 250.954C104.788 250.954 74.7947 259.086 74.7947 269.118C74.7947 279.15 104.788 287.282 141.788 287.282Z" fill="#464353"/>
<path opacity="0.1" d="M141.788 287.282C178.787 287.282 208.781 279.15 208.781 269.118C208.781 259.086 178.787 250.954 141.788 250.954C104.788 250.954 74.7947 259.086 74.7947 269.118C74.7947 279.15 104.788 287.282 141.788 287.282Z" fill="black"/>
<path d="M153.8 173.229C151.504 177.53 147.69 180.888 143.053 182.692C140.315 183.659 137.434 184.19 134.522 184.264C131.341 184.404 128.094 184.205 125.105 183.151C121.095 181.743 117.764 178.864 115.267 175.508C112.77 172.153 111.051 168.32 109.556 164.455C108.769 162.444 108.02 160.3 108.39 158.175C110.803 157.644 113.445 156.863 114.691 154.788C115.754 153.007 115.459 150.873 114.846 148.839C114.672 148.262 114.471 147.69 114.269 147.14C113.801 145.823 112.185 143.321 113.332 142.195C114.049 141.482 117.052 141.119 118.087 140.656C121.278 139.23 124.22 137.168 127.724 136.492C130.755 135.906 133.885 136.455 136.911 137.064C137.312 137.12 137.698 137.255 138.045 137.459C138.44 137.782 138.733 138.207 138.888 138.685C139.75 140.719 140.256 142.967 140.949 145.088C141.671 147.308 142.598 149.393 144.337 150.968C145.69 152.199 147.414 152.971 149.101 153.72L153.252 155.564C153.99 155.832 154.66 156.252 155.215 156.795C155.757 157.518 156.082 158.373 156.152 159.265C156.895 164.043 156.073 168.928 153.8 173.229Z" fill="#FBBEBE"/>
<path opacity="0.1" d="M140.93 145.088C137.625 148.424 133.271 150.602 128.551 151.28C123.831 151.959 119.012 151.1 114.85 148.839C114.676 148.262 114.475 147.69 114.274 147.14C113.805 145.823 112.189 143.321 113.337 142.195C114.053 141.482 117.056 141.119 118.092 140.656C121.282 139.23 124.224 137.168 127.728 136.492C130.759 135.906 133.889 136.455 136.915 137.064C137.317 137.12 137.702 137.255 138.049 137.459C138.444 137.782 138.737 138.207 138.892 138.685C139.731 140.719 140.237 142.967 140.93 145.088Z" fill="black"/>
<path d="M125.391 150.596C137.292 150.596 146.941 141.244 146.941 129.707C146.941 118.171 137.292 108.818 125.391 108.818C113.489 108.818 103.84 118.171 103.84 129.707C103.84 141.244 113.489 150.596 125.391 150.596Z" fill="#FBBEBE"/>
<path d="M191.048 197.501L189.277 187.102C188.383 181.884 187.46 176.566 184.958 171.866C183.314 168.788 180.704 165.854 177.186 165.246C176.493 165.186 175.812 165.033 175.162 164.791C174.131 164.31 173.569 163.229 172.778 162.43C170.735 160.378 167.409 160.346 164.673 159.301C162.255 158.393 160.278 156.645 158.077 155.31C155.875 153.975 153.134 153.039 150.698 153.893C150.304 157.957 149.887 162.112 148.107 165.813C146.949 168.223 145.249 170.35 143.133 172.041C141.016 173.732 138.537 174.943 135.876 175.585C133.215 176.228 130.439 176.286 127.752 175.755C125.065 175.223 122.534 174.117 120.345 172.516C116.171 169.469 113.496 164.769 112.25 159.851C111.945 158.652 111.598 157.276 110.46 156.727C109.228 156.127 107.747 156.854 106.712 157.735C104.838 159.365 103.306 161.699 100.842 162.249C99.9518 162.448 98.968 162.407 98.2278 162.93C97.7359 163.37 97.3241 163.887 97.0098 164.46C96.4705 165.199 95.75 165.795 94.9133 166.197C94.0766 166.598 93.15 166.791 92.2172 166.758C91.3599 166.717 90.3433 166.526 89.7577 167.13C89.322 167.584 89.2892 168.293 88.8207 168.715C88.1882 169.31 87.1623 169.019 86.2815 168.987C84.6137 168.919 83.063 169.955 82.1073 171.258C81.1516 172.561 80.7019 174.173 80.2334 175.735C85.3539 186.788 90.0387 197.855 95.1593 208.908C95.3992 209.324 95.5265 209.793 95.5294 210.27C95.4267 210.765 95.2088 211.231 94.8922 211.633C92.3812 215.542 92.4608 220.46 92.7372 225.056C93.0136 229.651 93.3509 234.506 91.2334 238.625C90.6571 239.755 89.9076 240.791 89.3594 241.921C88.0758 244.483 87.612 252.675 88.3616 255.427H194.276C192.257 250.045 193.025 239.247 193.447 233.534C193.742 229.538 192.979 225.546 192.651 221.55C191.934 213.39 192.44 205.647 191.048 197.501Z" fill="#EB5757"/>
<path d="M72.1199 209.398C71.9324 210.712 71.9136 212.044 72.0637 213.363L73.4082 232.104C73.5347 233.87 73.6612 235.632 73.8298 237.394C74.1531 240.813 74.6356 244.206 75.2353 247.593C75.2488 248.074 75.4586 248.53 75.8187 248.862C76.1788 249.193 76.6598 249.372 77.1561 249.36C83.0824 250.577 89.2054 250.527 95.2536 250.195C104.483 249.696 113.698 248.556 122.941 248.751C125.321 248.801 128.094 248.751 129.537 246.935C130.98 245.118 130.141 242.18 128.258 240.714C126.375 239.247 123.817 238.897 121.4 238.897C118.2 238.865 115 239.306 111.81 239.124C108.882 238.956 106.019 238.27 103.18 237.585L95.2161 235.664C95.5206 233.325 96.4388 231.123 97.3102 228.902C98.8749 224.965 100.337 220.896 100.365 216.678C100.393 212.459 98.7531 208.022 95.188 205.607C92.2553 203.622 88.4793 203.254 84.9048 203.336C82.3047 203.409 77.8119 202.805 75.4367 203.79C73.5581 204.589 72.4712 207.614 72.1199 209.398Z" fill="#FBBEBE"/>
<path d="M196.469 252.248C198.029 251.671 199.748 251.88 201.421 252.098C206.804 252.811 212.266 253.542 217.256 255.626C219.598 256.598 221.828 257.897 223.412 259.809C224.817 261.53 225.637 263.637 226.414 265.712L228.213 270.489C228.897 272.306 229.591 274.158 229.783 276.088C230.345 281.806 226.311 287.196 221.238 290.166C216.164 293.136 210.191 294.194 204.372 295.302C198.554 296.41 192.712 297.636 186.917 298.934C184.214 299.614 181.471 300.138 178.704 300.501C172.501 301.182 166.018 300.179 160.124 302.168C157.782 302.962 155.481 304.143 153.05 304.693C151.435 305.022 149.802 305.263 148.159 305.415L137.005 306.65C134.736 306.944 132.453 307.114 130.165 307.158C125.292 307.158 120.5 306.041 115.768 304.924C115.265 304.839 114.786 304.651 114.363 304.375C113.613 303.802 113.449 302.79 113.341 301.873C112.864 297.813 112.445 293.749 112.086 289.68C111.973 288.358 111.889 286.928 112.634 285.815C113.571 284.453 115.398 284.026 117.066 283.763C124.138 282.641 131.302 282.159 138.466 282.323C141.188 279.685 145.676 279.671 149.241 278.236C150.553 277.652 151.822 276.983 153.041 276.234C159.418 272.627 166.545 270.444 173.902 269.844C175.343 269.802 176.774 269.604 178.17 269.254C180.929 268.423 183.445 266.162 186.28 266.716C186.631 265.776 186.875 264.518 187.685 263.873C188.088 263.541 188.584 263.319 188.955 262.965C189.737 262.197 189.807 260.989 189.69 259.918C189.573 258.846 189.311 257.747 189.596 256.703C189.715 256.307 189.89 255.93 190.116 255.581C191.522 253.229 193.644 252.021 196.469 252.248Z" fill="#464353"/>
<path opacity="0.05" d="M196.469 252.248C198.029 251.671 199.748 251.88 201.421 252.098C206.804 252.811 212.266 253.542 217.256 255.626C219.598 256.598 221.828 257.897 223.412 259.809C224.817 261.53 225.637 263.637 226.414 265.712L228.213 270.489C228.897 272.306 229.591 274.158 229.783 276.088C230.345 281.806 226.311 287.196 221.238 290.166C216.164 293.136 210.191 294.194 204.372 295.302C198.554 296.41 192.712 297.636 186.917 298.934C184.214 299.614 181.471 300.138 178.704 300.501C172.501 301.182 166.018 300.179 160.124 302.168C157.782 302.962 155.481 304.143 153.05 304.693C151.435 305.022 149.802 305.263 148.159 305.415L137.005 306.65C134.736 306.944 132.453 307.114 130.165 307.158C125.292 307.158 120.5 306.041 115.768 304.924C115.265 304.839 114.786 304.651 114.363 304.375C113.613 303.802 113.449 302.79 113.341 301.873C112.864 297.813 112.445 293.749 112.086 289.68C111.973 288.358 111.889 286.928 112.634 285.815C113.571 284.453 115.398 284.026 117.066 283.763C124.138 282.641 131.302 282.159 138.466 282.323C141.188 279.685 145.676 279.671 149.241 278.236C150.553 277.652 151.822 276.983 153.041 276.234C159.418 272.627 166.545 270.444 173.902 269.844C175.343 269.802 176.774 269.604 178.17 269.254C180.929 268.423 183.445 266.162 186.28 266.716C186.631 265.776 186.875 264.518 187.685 263.873C188.088 263.541 188.584 263.319 188.955 262.965C189.737 262.197 189.807 260.989 189.69 259.918C189.573 258.846 189.311 257.747 189.596 256.703C189.715 256.307 189.89 255.93 190.116 255.581C191.522 253.229 193.644 252.021 196.469 252.248Z" fill="black"/>
<path d="M104.379 304.792C101.479 308.048 98.9261 309.211 94.3865 309.106C91.5943 309.043 88.8053 308.902 86.0194 308.684C84.1152 308.485 82.2002 308.398 80.2851 308.425C74.504 308.643 68.9244 311.209 63.1574 310.759C62.3046 310.694 61.4614 310.542 60.6416 310.305C59.3333 309.956 58.1509 309.261 57.2264 308.298C56.1208 307.086 55.5914 305.478 55.2869 303.889C53.7456 295.742 57.9713 286.869 65.3686 282.723C66.3338 282.119 67.431 281.741 68.573 281.619C69.693 281.615 70.8 281.851 71.815 282.31L71.8852 282.337C74.8906 283.536 77.6201 285.301 79.915 287.532C80.2632 287.918 80.6786 288.243 81.1424 288.49C81.6053 288.659 82.0953 288.749 82.5901 288.753L88.7459 289.13C89.7889 289.16 90.8255 289.299 91.8379 289.544C92.9541 289.921 94.0406 290.377 95.0892 290.906C98.4014 292.341 102.074 292.722 105.653 293.276C105.998 293.295 106.328 293.422 106.59 293.64C106.733 293.812 106.833 294.014 106.881 294.23C107.384 296.055 107.419 297.971 106.983 299.812C106.547 301.653 105.653 303.363 104.379 304.792Z" fill="#3F3D56"/>
<path opacity="0.1" d="M71.8852 282.341C69.4969 284.552 67.4249 287.063 65.7247 289.807C62.9962 294.336 61.2819 299.37 60.6932 304.584C60.4699 306.485 60.4526 308.405 60.6416 310.31C59.3333 309.96 58.1509 309.266 57.2264 308.303C56.1208 307.09 55.5914 305.483 55.2869 303.893C53.7456 295.747 57.9713 286.873 65.3686 282.727C66.3338 282.123 67.431 281.745 68.573 281.624C69.693 281.62 70.8001 281.855 71.815 282.314L71.8852 282.341Z" fill="black"/>
<path d="M191.109 293.64C194.553 293.549 198.418 293.381 200.948 295.628C203.36 297.754 203.679 301.259 203.838 304.415L204.021 308.08C204.077 309.197 204.124 310.351 203.66 311.386C202.836 313.202 200.573 314.079 198.507 313.974C196.441 313.87 194.543 312.994 192.655 312.203C187.53 310.063 182.193 308.433 176.727 307.34C176.905 304.806 177.202 302.284 177.617 299.774C177.903 298.035 177.95 295.124 179.149 293.68C180.419 292.155 182.072 292.981 183.796 293.263C186.215 293.62 188.665 293.747 191.109 293.64Z" fill="#FBBEBE"/>
<path d="M100.111 256.816C100.111 257.27 99.3757 256.816 99.3101 256.33C98.7948 252.657 95.7871 249.628 92.2828 248.156C88.7786 246.685 84.7871 246.608 80.9924 246.957C75.2535 247.484 68.8119 249.614 66.713 254.814C66.2165 256.031 65.9916 257.347 65.3826 258.514C64.7079 259.795 63.607 260.817 62.8762 262.061C61.616 264.214 61.5644 266.852 62.0188 269.286C63.2416 275.78 67.8233 281.333 73.3749 285.18C78.9264 289.026 85.4149 291.324 91.8846 293.394C108.992 298.863 126.544 302.927 144.355 305.542C147.241 305.964 150.155 306.355 152.919 307.254C155.392 308.057 157.706 309.261 160.124 310.205C165.746 312.394 171.794 313.175 177.786 313.943C178.807 314.07 179.978 314.161 180.732 313.489C181.707 312.612 181.384 311.086 181.107 309.828C180.09 305.046 180.943 300.067 183.501 295.86C184.504 294.225 185.806 292.55 185.619 290.656C185.394 288.449 183.126 286.887 180.868 286.533C178.61 286.179 176.315 286.701 174.047 286.987C173.265 287.087 172.412 287.15 171.728 286.764C171.391 286.544 171.086 286.281 170.819 285.983C169.257 284.523 167.258 283.579 165.109 283.288C162.959 282.997 160.77 283.373 158.854 284.362C158.016 284.816 156.746 283.804 155.875 283.422L146.023 279.099C134.704 274.136 123.329 269.15 111.355 266.007C110.399 265.825 109.491 265.459 108.684 264.931C108.089 264.477 107.663 263.859 107.115 263.355C105.92 262.261 104.257 261.825 102.824 261.048C101.39 260.272 99.7833 258.374 100.111 256.816Z" fill="#464353"/>
<path d="M251.998 316.163C250.424 318.992 247.37 320.754 244.09 321.481C243.267 321.661 242.431 321.776 241.589 321.826C237.443 322.076 233.348 320.963 229.352 319.864L223.927 318.384C222.994 318.099 222.038 317.893 221.069 317.766C219.75 317.681 218.425 317.725 217.115 317.898C210.703 318.476 204.24 318.195 197.907 317.062C197.378 317.007 196.869 316.831 196.422 316.549C196.031 316.178 195.684 315.765 195.387 315.319C193.911 313.598 192.323 312.594 194.07 310.323C195.078 309.007 196.947 308.348 197.729 306.836C198.512 305.324 198.01 303.176 197.547 301.614C196.914 299.457 194.834 298.526 194.089 296.546C193.532 295.052 194.469 293.317 195.879 292.504C197.289 291.691 199.032 291.628 200.657 291.837C202.283 292.046 203.876 292.491 205.511 292.613C210.317 292.986 215.232 290.583 219.846 291.937C220.863 292.236 221.823 292.713 222.854 292.977C224.863 293.412 226.962 293.236 228.865 292.472C229.539 292.227 230.2 291.932 230.856 291.641C232.121 291.003 233.468 290.531 234.861 290.238C239.363 289.489 243.538 292.509 246.934 295.456C248.1 296.394 249.132 297.478 250.003 298.68C250.94 300.097 251.436 301.745 251.877 303.371C253.118 307.572 254.144 312.303 251.998 316.163Z" fill="#3F3D56"/>
<path opacity="0.1" d="M251.998 316.163C250.424 318.992 247.37 320.754 244.09 321.481C245.366 319.078 245.941 316.384 245.754 313.688C245.472 309.37 243.514 305.301 241.017 301.714C239.481 299.505 237.734 297.442 235.798 295.551C234.308 294.098 232.477 292.945 230.875 291.614C232.139 290.976 233.486 290.504 234.88 290.211C239.382 289.462 243.556 292.482 246.953 295.429C248.119 296.367 249.151 297.451 250.021 298.653C250.958 300.07 251.455 301.718 251.895 303.344C253.118 307.572 254.144 312.303 251.998 316.163Z" fill="black"/>
<path d="M79.9668 176.072C79.5104 176.535 79.1565 177.083 78.9268 177.684C75.1398 185.956 72.9031 194.816 72.3212 203.849C72.3313 204.29 72.2266 204.725 72.0166 205.116C71.8096 205.376 71.5791 205.618 71.328 205.838C71.0999 206.1 70.9297 206.405 70.8279 206.733C70.7261 207.061 70.6949 207.407 70.7362 207.747C70.7774 208.088 70.8903 208.416 71.0679 208.713C71.2454 209.009 71.4838 209.267 71.7684 209.471C72.5413 208.059 74.3919 207.6 76.0362 207.478C83.9114 206.874 91.6039 210.425 99.5025 210.157C98.945 208.29 98.1439 206.497 97.6895 204.608C95.6797 196.22 100.692 187.088 97.6192 179.01C97.0055 177.393 95.9795 175.804 94.3633 175.095C93.6941 174.833 92.9937 174.653 92.2785 174.559C90.2828 174.21 86.3101 172.716 84.3799 173.315C83.6678 173.538 83.3867 174.187 82.7964 174.578C81.9016 175.136 80.7117 175.34 79.9668 176.072Z" fill="#EB5757"/>
<path d="M197.317 192.601H100.313C98.251 192.601 96.5793 194.221 96.5793 196.22V253.465C96.5793 255.464 98.251 257.084 100.313 257.084H197.317C199.379 257.084 201.051 255.464 201.051 253.465V196.22C201.051 194.221 199.379 192.601 197.317 192.601Z" fill="#3F3D56"/>
<path d="M148.581 227.567C150.133 227.567 151.392 226.347 151.392 224.843C151.392 223.338 150.133 222.118 148.581 222.118C147.029 222.118 145.77 223.338 145.77 224.843C145.77 226.347 147.029 227.567 148.581 227.567Z" fill="white"/>
<path d="M110.503 95.8037C108.928 96.9072 107.851 98.492 106.755 100.013C104.736 102.824 102.449 105.631 99.2215 107.197C97.9987 107.792 96.6027 108.242 95.7922 109.277C95.3111 109.977 94.9989 110.773 94.8786 111.607C94.2603 114.536 93.9371 117.517 93.9136 120.507C93.9136 121.997 93.9792 123.531 94.6585 124.885C95.3003 126.156 96.4574 127.232 96.6964 128.617C96.8791 129.698 96.4668 130.774 96.3216 131.86C96.1763 132.945 96.4293 134.23 97.4647 134.748C98.0225 134.951 98.6051 135.084 99.1981 135.143C102.313 135.815 103.358 139.357 103.831 142.286C104.89 142.227 105.368 141.051 105.588 140.093L108.835 126.102C109.186 124.585 109.772 122.828 111.332 122.296C112.376 121.947 113.52 122.274 114.611 122.364C118.898 122.705 122.524 119.494 126.717 118.609C128.059 118.346 129.431 118.258 130.797 118.346C134.105 118.504 137.951 119.821 138.654 122.814C138.771 123.3 138.841 123.881 139.31 124.122C139.778 124.362 140.27 124.158 140.762 124.122C142.861 123.917 144.097 126.206 144.702 128.077L146.904 134.889C147.232 135.919 147.784 137.132 148.937 137.264C150 137.391 150.905 136.414 151.064 135.447C151.223 134.48 150.876 133.476 150.647 132.505C149.612 128.032 151.195 123.454 152.16 118.972C153.125 114.49 153.298 109.341 150.061 105.889C148.885 104.641 147.339 103.71 146.243 102.393C145.222 101.158 144.646 99.6409 143.587 98.4285C140.659 95.0817 133.149 92.4978 128.544 92.071C123.283 91.517 114.756 92.8112 110.503 95.8037Z" fill="#3F3D56"/>
<defs>
<linearGradient id="paint0_linear" x1="153.968" y1="321.567" x2="153.968" y2="89.428" gradientUnits="userSpaceOnUse">
<stop stop-color="#808080" stop-opacity="0.25"/>
<stop offset="0.54" stop-color="#808080" stop-opacity="0.12"/>
<stop offset="1" stop-color="#808080" stop-opacity="0.1"/>
</linearGradient>
</defs>
</svg>
